<?xml version="1.0" encoding="iso-8859-1"?>
<!-- Generator: Adobe Illustrator 16.0.0, SVG Export Plug-In . SVG Version: 6.00 Build 0)  -->
<!DOCTYPE svg PUBLIC "-//W3C//DTD SVG 1.1//EN" "http://www.w3.org/Graphics/SVG/1.1/DTD/svg11.dtd">
<svg version="1.1" id="Capa_1" xmlns="http://www.w3.org/2000/svg" xmlns:xlink="http://www.w3.org/1999/xlink" x="0px" y="0px"
	 width="564.285px" height="564.285px" viewBox="0 0 564.285 564.285" style="enable-background:new 0 0 564.285 564.285;"
	 xml:space="preserve">
<g>
	<g>
		<path d="M140.238,92.589c0,0,36.588,81.262,43.981,179.772c27.714,8.709,61.683,13.691,97.923,13.691
			c36.239,0,70.209-5.294,97.923-14.003c7.396-98.511,43.981-179.46,43.981-179.46C372.095,73.113,379.53,0,379.53,0h-30.606
			c0,76.5-66.778,77.908-66.778,77.908S215.364,76.5,215.364,0h-30.609C184.755,0,192.191,73.113,140.238,92.589z"/>
		<path d="M431.002,487.072c-21.533-28.973-48.191-106.582-51.393-154.793c-0.985-14.832-1.07-29.572-0.489-44.037
			c-27.92,8.232-61.068,12.953-96.978,12.953s-69.058-4.721-96.978-12.953c0.582,14.465,0.496,29.205-0.49,44.037
			c-3.201,48.211-29.862,125.82-51.393,154.793C56.764,590.023,507.521,590.023,431.002,487.072z"/>
	</g>
</g>
<g>
</g>
<g>
</g>
<g>
</g>
<g>
</g>
<g>
</g>
<g>
</g>
<g>
</g>
<g>
</g>
<g>
</g>
<g>
</g>
<g>
</g>
<g>
</g>
<g>
</g>
<g>
</g>
<g>
</g>
</svg>
