<svg xmlns="http://www.w3.org/2000/svg" viewBox="0 0 1969 3333" shape-rendering="geometricPrecision" text-rendering="geometricPrecision" image-rendering="optimizeQuality" fill-rule="evenodd" clip-rule="evenodd"><path d="M0 3294L81 707c-1-2-2-5-2-7-1-7 0-14 3-20l14-447v-2-4l6-192c1-19 16-34 35-34h1701c19 0 35 16 35 35l6 186c1 3 1 5 1 8 0 2 0 4-1 6l90 3050c1 19-15 35-34 36h-622c-19 0-34-14-35-33L986 1130 684 3302c-2 17-17 30-34 30H35c-19 0-35-16-35-35v-4zM1090 266v471c0 18-7 34-19 45-12 12-28 19-45 19h-80c-17 0-33-7-44-18l-3-3c-10-11-16-25-16-41V266H600c-25 140-80 243-159 317-77 73-177 117-292 140L70 3264h549L952 871c2-15 14-28 30-30 19-3 37 11 39 30l322 2383h554l-75-2529c-117-23-218-67-297-141s-134-177-159-317h-278zm-70 0h-67v465h67V266zm418 0c23 118 70 205 136 267 65 61 149 99 247 120l-11-387h-371zM151 652c96-21 178-59 242-119 66-62 113-149 136-267H163l-12 386z" fill-rule="nonzero"/></svg>