<svg xmlns="http://www.w3.org/2000/svg" viewBox="0 0 2545 3333" shape-rendering="geometricPrecision" text-rendering="geometricPrecision" image-rendering="optimizeQuality" fill-rule="evenodd" clip-rule="evenodd"><path d="M786 850V586c0-128 53-245 137-329 85-85 201-137 329-137h1c128 0 245 53 329 137 85 84 137 201 137 329v267c-57 19-98 72-98 135 0 78 64 142 142 142 79 0 142-64 142-142 0-51-27-95-67-121V585c0-161-66-307-172-413S1413 0 1252 0h-1c-161 0-307 66-413 172S666 424 666 585v289c-34 26-56 67-56 113 0 79 64 142 142 142s142-64 142-142c0-67-46-123-109-138zm-488 5h178c-23 44-37 94-37 147 0 18 2 36 5 54h-88L205 3134h2134l-151-2078h-125c3-17 5-35 5-54 0-53-13-103-37-147h215c38 0 72 15 96 40 24 24 39 56 42 91l160 2203v9c0 38-16 71-41 96-23 23-54 37-88 40H127c-33-2-65-17-88-40-25-24-41-58-41-96v-9L158 986c3-35 18-67 41-91 25-25 58-40 96-40zm727 0h456c-23 44-37 94-37 147 0 18 2 36 5 54h-392c3-17 5-35 5-54 0-53-13-103-37-147z" fill-rule="nonzero"/></svg>