<svg xmlns="http://www.w3.org/2000/svg" width="64" height="64" shape-rendering="geometricPrecision" text-rendering="geometricPrecision" image-rendering="optimizeQuality" fill-rule="evenodd" clip-rule="evenodd" viewBox="0 0 640 640"><path d="M358.186 75.036c7.488-4.063 14.41-7.523 20.918-10.275a9.77 9.77 0 0 1-.201-1.96V9.85c0-5.422 4.429-9.851 9.85-9.851h22.489c5.421 0 9.85 4.43 9.85 9.85v48.308c12.225 2.599 24.012 10.052 37.064 23.445v56.966c-53.906 126.864-49.265 148.029 3.271 264.83 31.265 57.426 50.883 135.096 59.529 231.818.236 2.622-2.138 4.771-4.772 4.771H125.6c-3.614 0-6.614-2.952-6.567-6.555 1.098-80.788 15.307-158.187 50.847-220.656 58.867-120.238 65.115-139.466 10.866-274.208V81.604c12.083-12.91 24.284-20.15 36.485-23.15V9.851c0-5.421 4.43-9.85 9.85-9.85h22.49c5.409 0 9.838 4.429 9.838 9.85v53.115c7.335 3.012 14.634 6.992 21.886 11.622 38.056 24.343 37.406 21.91 76.89.449z"/></svg>