<svg xmlns="http://www.w3.org/2000/svg" viewBox="0 0 1333.33 1248.08" shape-rendering="geometricPrecision" text-rendering="geometricPrecision" image-rendering="optimizeQuality" fill-rule="evenodd" clip-rule="evenodd"><path d="M1174.44 158.89C1078.71 118.12 982.79 81.32 888.9 0c39 134.55-72.09 441.42-223.37 794.44C563.97 520.22 441.59 236.71 445.04 0c-36.12 36.57-81.67 66.07-131.83 92.11l-156.59 69.08c-46.41 19.89-63.5 71.55-66.78 138.16C41.22 614.83-1.51 930.3.03 1245.78H230.3l32.24-511.21c14.94 46.03 26.58 94.04 35.05 145.53 17.85 108.53 14.42 166.95 2.71 273.53l-10.13 92.15h346.56l30.51-167.39 35.13 169.69h343.68l-9.05-92.54c-10.11-103.36-13.17-155.96 3.02-260.81 7.96-51.59 18.75-104.13 32.03-157.51l31 510.87h230.27c-1.06-306.93-34.25-616.53-89.81-928.01 2.21-89.79-20.98-143.28-69.08-161.19zM697 186.66l70.23 187.05-38.42 22.92 10.73 70.81h-.02c.37 2.45-.5 5.04-2.52 6.76l-77.04 65.92a7.458 7.458 0 01-9.6.52l-81.08-61.2a7.466 7.466 0 01-3.1-7.19l47.88-320.02a7.462 7.462 0 017.43-6.73h62.85c3.64 0 6.82 2.65 7.38 6.36l5.28 34.81zM598.37 20.94l26.68 75.15h53.52l30.86-75.04c-19.56-12.8-38.54-19.2-56.96-19.2-18.36 0-36.39 6.37-54.1 19.1zm68.3 973.9c14.83 0 26.86 12.02 26.86 26.86 0 14.83-12.02 26.86-26.86 26.86-14.83 0-26.86-12.02-26.86-26.86 0-14.83 12.02-26.86 26.86-26.86zm197.52-555.29h179.26c1.53 0 2.78 1.26 2.78 2.78v39.63c0 1.53-1.25 2.78-2.78 2.78H864.19c-1.53 0-2.78-1.25-2.78-2.78v-39.63c0-1.53 1.25-2.78 2.78-2.78zM666.67 824.36c14.83 0 26.86 12.02 26.86 26.86 0 14.83-12.02 26.86-26.86 26.86-14.83 0-26.86-12.02-26.86-26.86 0-14.83 12.02-26.86 26.86-26.86z"/></svg>