<svg xmlns="http://www.w3.org/2000/svg" viewBox="0 0 333334 290717" shape-rendering="geometricPrecision" text-rendering="geometricPrecision" image-rendering="optimizeQuality" fill-rule="evenodd" clip-rule="evenodd"><path d="M53184 126547c679-406 1476-892 2350-1426 2488-1520 5604-3424 8840-5149 7192-3834 14637-6411 17182-1639l2 3 6-3c2847 5352 5282 18390 7157 33069 2685 21016 4271 45572 4251 55358-27 12909-785 25497-2169 37835-1291 11513-3128 22832-5422 34009l161670-191c-1954-11826-3552-23696-4709-35650-1231-12724-1955-25519-2065-38424-117-13708 463-27502 1865-41424 1404-13932 3633-28012 6815-42284 359-1631 1348-2962 2654-3794 1304-832 2926-1167 4556-808l2-7c177 39 386 99 622 179 143 48 278 98 404 150 70 23 139 51 207 83l22500 10366 38639-50743-91960-61143c-4679 8894-9781 16476-15201 22750-6046 6998-12490 12374-19189 16139-3728 2095-7539 3696-11406 4804-3886 1112-7848 1727-11858 1844-3980 117-7958-261-11909-1130-3948-868-7887-2226-11794-4070-7570-3574-15017-8992-22160-16232-6496-6584-12746-14680-18611-24268L14730 76514l38454 50036zm18954 3664l-17741 9462c-54 29-109 55-165 79-1255 624-2656 778-3963 495-1350-292-2609-1049-3519-2235-32-42-62-85-91-128L1513 79139l-4 3c-33-38-107-130-224-279-91-117-169-220-222-298l-48-75c-905-1358-1189-2954-916-4447 278-1524 1140-2942 2515-3891L102728 1236c239-182 472-335 698-462 1300-729 2775-931 4152-657 1375 274 2661 1029 3584 2214 200 256 374 513 517 769 5854 10415 12092 19054 18545 25899 6567 6966 13352 12070 20172 15289 3062 1445 6119 2507 9150 3181s6055 968 9050 881c2978-87 5952-557 8901-1410 2936-849 5863-2089 8764-3719 6014-3381 11847-8418 17351-15128 5392-6573 10471-14754 15105-24561 16-35 33-69 52-102 50-105 103-206 156-302 85-154 168-291 244-406l8-12c922-1386 2321-2270 3836-2579 1521-309 3160-39 4553 882l7 6 103047 68515c37 25 74 50 109 77l34 24 47 34 1-2 109 80 32 24 8 6 4 4c1320 1013 2108 2471 2314 4009 205 1533-175 3147-1189 4474l-45424 59653-14 17c-837 1133-2024 1916-3332 2262-1314 347-2752 256-4082-356l-20026-9226c-2423 12097-4150 24048-5262 35884-1192 12687-1683 25259-1577 37747 113 13248 906 26450 2254 39642 1343 13147 3248 26312 5588 39524 17 93 26 186 29 278 12 85 21 166 27 243l4 64c12 157 19 310 19 459 0 1663-678 3175-1775 4275l-4 4-4 4-3 2c-1100 1095-2610 1772-4272 1772v-8l-176081 208c-251 11-518 6-800-20-279-24-548-65-802-122-1630-366-2960-1361-3790-2673-827-1307-1155-2931-788-4563 2767-12339 4975-24850 6502-37615 1526-12768 2366-25731 2394-38959 26-12499-671-25312-2194-38508-1425-12345-3578-25007-6541-38041z" fill-rule="nonzero"/></svg>