<svg xmlns="http://www.w3.org/2000/svg" width="64" height="64" shape-rendering="geometricPrecision" text-rendering="geometricPrecision" image-rendering="optimizeQuality" fill-rule="evenodd" clip-rule="evenodd" viewBox="0 0 640 640"><path d="M280.799 541.247c27.26 0 49.37 22.11 49.37 49.383 0 27.272-22.11 49.37-49.37 49.37-27.272 0-49.383-22.099-49.383-49.37 0-27.272 22.111-49.383 49.383-49.383zm181.124-333.725c14.339-.118 25.925 11.421 25.89 25.748-.024 14.34-11.67 26.044-26.008 26.162l-62.847.437-51.863.366-62.611.437c-14.339.106-25.937-11.421-25.902-25.748.035-14.339 11.681-26.056 26.02-26.162l62.847-.437 51.863-.366 62.611-.437zM119.057 65.611h485.947c31.784 0 30.048 12.862 27.307 45.674l-18.047 230.4c-3.083 36.709-.473 27.815-39.39 33.378l-357.394 45.45 18.886 54.862c155.057-.023 229.987 0 384.96 0 5.233 19.5 12.284 51.19 17.505 72.923h-63.97l-6.13-22.205c-129.154 0-178.383-.012-307.597 0-70.56-1.181-63.473 17.894-80.399-43.052L59.422 42.225H1.17V0h102.12c4.76 17.776 11.338 47.658 15.767 65.611zm365.402 475.636c27.26 0 49.37 22.11 49.37 49.383 0 27.272-22.11 49.37-49.37 49.37-27.272 0-49.383-22.099-49.383-49.37 0-27.272 22.111-49.383 49.383-49.383z"/></svg>